<svg version="1.0" xmlns="http://www.w3.org/2000/svg" width="592" height="1042.667" viewBox="0 0 444 782"><path d="M179.9 61.9c-2.4 2.4-2.9 3.8-2.9 7.6 0 6.6 3.9 10.5 10.5 10.5S198 76.1 198 69.5c0-3.8-.5-5.2-2.9-7.6-2.4-2.4-3.8-2.9-7.6-2.9s-5.2.5-7.6 2.9zM285 177.8c0 .5.6 1.7 1.4 2.7 1.2 1.7 1.2 2.2-.5 4.4-1.2 1.5-1.9 4-1.9 6.8 0 3.6.6 5 3 7.5 2.9 2.8 3.5 3 8.6 2.6 3.8-.3 5.8-.1 6.5.9 1.9 2.2 3.2 1.4 1.6-1-1.3-2-1.3-2.6-.1-4.2.8-1 1.4-3.9 1.4-6.3 0-3.5-.6-4.9-2.9-7.3-2.5-2.4-3.7-2.9-8-2.9-4 0-5.3-.4-6.3-2-1.3-2-2.8-2.7-2.8-1.2zM359 300c0 .6-.9 2.3-2 3.7-3.2 4-2.7 10.7.9 14.4 2.4 2.4 3.8 2.9 7.6 2.9s5.2-.5 7.6-2.9c2.4-2.4 2.9-3.8 2.9-7.6 0-6.3-3.9-10.5-9.8-10.5-2.2 0-4.7-.3-5.6-.6-.9-.4-1.6-.1-1.6.6zm50.9 156.9c-2.4 2.4-2.9 3.8-2.9 7.6s.5 5.2 2.9 7.6c1.7 1.7 4 2.9 5.5 2.9 1.8 0 2.6.5 2.6 1.7 0 1.5.1 1.5 1.8.1 8.3-7.6 8.2-7.5 8.2-12.3 0-3.8-.5-5.2-2.9-7.6-2.4-2.4-3.8-2.9-7.6-2.9s-5.2.5-7.6 2.9zm19.5 157.5c-4.3 1.9-6.4 5.3-6.4 10.4 0 6.3 4 10.2 10.5 10.2 3.8 0 5.2-.5 7.6-2.9 2.4-2.4 2.9-3.8 2.9-7.6s-.5-5.2-2.9-7.6c-1.6-1.6-3.6-2.9-4.4-2.9-.9 0-2.1-.2-2.9-.5-.7-.2-2.7.2-4.4.9z"/></svg>