<svg xmlns="http://www.w3.org/2000/svg" height="428.555" width="1147.689"><defs><clipPath id="a" clipPathUnits="userSpaceOnUse"><path d="M0 321.416h860.767V0H0z"/></clipPath></defs><g clip-path="url(#a)" transform="matrix(1.33333 0 0 -1.33333 0 428.555)" fill="#fff"><path d="M107.483 29.77c-1.623.587-2.986 1.058-4.33 1.576-1.247.481-2.449 1.091-3.717 1.5-1.195.385-2.13-.054-2.831-1.089-1.002-1.479-.72-3.244.942-4.008 3.586-1.648 7.262-3.102 10.907-4.62.273-.115.594-.122.896-.16 1.353-.179 2.428.234 2.973 1.553.649 1.57 1.285 3.15 1.84 4.755 1.236 3.561 2.26 7.203 3.665 10.694 1.338 3.33 1.278 3.875 5.75 2.762 5.067-1.262 10.093-2.714 15.311-3.332 1.793-.212 3.588-.684 5.296-1.28 1.94-.679 2.498-1.992 2.204-4.032-.38-2.647-.689-5.304-1.018-7.958-.09-.724-.119-1.458-.22-2.18-.272-1.949-.884-2.605-2.807-2.676-1.511-.057-3.032.105-4.55.174-1.214.054-2.44.251-3.635.125-.784-.083-1.653-.475-2.25-.997-1.141-.998-.987-2.427.312-3.21a10.421 10.421 0 012.844-1.197c4.644-1.15 9.386-1.284 14.142-1.189 1.086.021 1.726.617 1.892 1.625.197 1.193.278 2.408.38 3.616.37 4.358.625 8.73 1.12 13.072.462 4.067.828 4.18 4.927 4.32 4.86.165 9.716.453 14.565.814 2.055.154 4.078.682 6.128.944 1.99.253 3.024-.369 3.704-2.176 1.428-3.793 2.044-7.757 2.257-11.78.11-2.05-.514-2.937-2.487-3.478-1.39-.38-2.875-.418-4.312-.643-1.195-.185-2.423-.295-3.563-.664-1.398-.453-1.933-1.586-1.698-3.035.216-1.337 1.025-2.16 2.482-2.214 1.39-.05 2.805-.009 4.177.203 3.181.494 6.344 1.106 9.511 1.691.595.11 1.194.26 1.754.486 1.24.502 2.01 1.396 1.902 2.801-.078 1.025-.179 2.063-.423 3.06-.97 3.954-2.02 7.887-2.993 11.841-.245.997-.375 2.035-.439 3.063-.11 1.775.296 2.426 1.936 3.083 1.297.52 2.638.928 3.958 1.388 3.673 1.283 7.35 2.557 11.017 3.856 1.316.467 2.588 1.067 3.92 1.48 2.568.794 3.088.558 4.417-1.717.123-.21.23-.43.336-.649 1.381-2.845 2.776-5.684 4.128-8.544.283-.595.423-1.26.601-1.903.263-.946-.042-1.68-.904-2.153-1.17-.643-2.368-1.242-3.527-1.906-1.05-.6-2.127-1.188-3.08-1.926-.84-.653-.997-1.994-.562-3.017.441-1.039 1.26-1.464 2.34-1.333.778.095 1.596.173 2.303.476 2.74 1.17 5.485 2.343 8.147 3.677 3.15 1.58 3.423 2.672 1.785 5.788a6632.768 6632.768 0 00-6.784 12.93c-.31.59-.632 1.188-.836 1.818-.346 1.072-.174 2.053.792 2.768.733.542 1.47 1.08 2.227 1.587 3.991 2.678 7.99 5.346 11.983 8.018.506.337.991.71 1.516 1.013 1.698.984 2.422 1.032 3.693-.439 2.621-3.036 5.076-6.217 7.597-9.339.038-.047.066-.103.095-.155.75-1.358.711-2.19-.36-3.296-.802-.826-1.737-1.522-2.606-2.28-.824-.72-1.697-1.394-2.445-2.185-.891-.944-.956-1.955-.367-3.013.584-1.048 1.53-1.57 2.75-1.307.752.162 1.546.454 2.15.912 2.622 1.98 5.259 3.952 7.739 6.101 2.906 2.516 2.867 2.963.352 5.868-3.305 3.821-6.641 7.615-9.934 11.446-1.766 2.054-1.675 3.248.11 5.226 4.524 5.013 9.012 10.06 13.52 15.087.488.543 1.017 1.048 1.508 1.588.764.84 1.686.916 2.668.528a6.997 6.997 0 001.433-.788 903.488 903.488 0 007.746-5.489 9.608 9.608 0 001.377-1.193c1.153-1.218 1.307-1.993.47-3.438-.698-1.204-1.557-2.318-2.381-3.445-.755-1.03-1.624-1.983-2.324-3.047-.928-1.415-.744-2.54.428-3.572 1.229-1.08 2.487-1.086 3.759.031.409.36.776.777 1.106 1.211 2.247 2.954 4.489 5.913 6.708 8.888.47.631.893 1.31 1.258 2.008.873 1.67.7 2.628-.723 3.863-.64.556-1.352 1.036-2.063 1.502-3.87 2.534-7.77 5.02-11.615 7.588-2.414 1.612-2.661 2.765-1.38 5.391.055.11.113.216.17.323 3.36 6.21 6.458 12.546 9.219 19.047 1.108 2.61 2.54 3.274 5.25 2.38a172.985 172.985 0 009.429-3.427c2.41-.954 2.784-1.785 2.027-4.233-.521-1.68-1.325-3.272-1.835-4.955a11.312 11.312 0 01-.47-3.367c.01-1.039.63-1.81 1.755-2.04 1.392-.285 1.984-.097 2.76 1.114.522.815 1.017 1.67 1.37 2.568 1.33 3.398 2.605 6.817 3.882 10.235.19.508.302 1.05.414 1.585.265 1.278-.085 2.34-1.321 2.883-1.44.635-2.906 1.236-4.406 1.702-3.483 1.081-7 2.055-10.49 3.113-.928.281-1.81.71-2.714 1.066-.963.38-1.47 1.108-1.429 2.116.06 1.453.054 2.937.358 4.347.858 3.983 1.806 7.94 2.214 12.01.157 1.563.486 3.131.936 4.638.728 2.438 2.017 3.15 4.534 2.851 2.959-.35 5.924-.647 8.887-.969.362-.039.726-.074 1.085-.138 2.113-.379 2.482-.719 2.559-2.828.067-1.822-.08-3.65-.02-5.473.024-.762.18-1.604.55-2.256.942-1.662 2.636-1.749 3.892-.323.845.96 1.184 2.112 1.307 3.343.156 1.574.33 3.15.405 4.728.08 1.701.127 3.41.06 5.11-.076 1.938-.933 2.866-2.839 3.224-.712.133-1.45.15-2.179.168-4.622.126-9.245.232-13.868.361-.604.018-1.21.105-1.806.216-.943.175-1.525.755-1.624 1.72a87.199 87.199 0 00-.342 4.177c-.137 2.551-.144 5.112-.372 7.654-.189 2.115-.629 4.208-.937 6.313-.304 2.086.647 3.562 2.666 4.161.348.103.714.142 1.073.204 2.514.438 5.027.885 7.544 1.305 1.076.18 2.162.408 3.246.425 1.535.024 2.417-.64 2.791-2.119.265-1.048.25-2.164.418-3.24.187-1.193.291-2.43.703-3.547.52-1.41 1.626-1.877 3.09-1.634 1.28.213 2.017 1.07 2.135 2.558.053.664.102 1.348.008 2.003-.415 2.885-.815 5.775-1.348 8.64-.73 3.925-1.53 4.515-5.433 3.792-4.539-.839-9.052-1.82-13.564-2.795-3.564-.769-4.727-.097-5.678 3.446-.015.06-.024.12-.039.178-1.528 6.02-3.452 11.911-5.703 17.7a10.347 10.347 0 00-.64 2.828c-.104 1.21.247 2.328 1.46 2.901 3.354 1.585 6.721 3.141 10.088 4.698.216.1.472.115.71.162 1.777.353 2.63.071 3.518-1.508.742-1.317 1.254-2.762 1.892-4.139.536-1.155 1.001-2.362 1.687-3.423.806-1.246 1.818-1.49 2.983-.997 1.234.521 2.045 1.794 1.856 3.048-.089.594-.287 1.185-.522 1.742-1.607 3.81-3.226 7.615-4.869 11.411a8.008 8.008 0 01-1.012 1.723c-.968 1.243-1.733 1.442-3.179.872-.677-.267-1.326-.608-1.975-.942-4.274-2.197-8.543-4.404-12.818-6.599-.432-.222-.887-.399-1.339-.577-1.23-.483-2.29-.19-3.106.82-.61.754-1.146 1.57-1.69 2.374-3.65 5.39-7.292 10.784-10.939 16.175-.273.402-.599.77-.86 1.18-1.026 1.607-.964 3.183.44 4.457 2.79 2.536 5.632 5.022 8.551 7.407 1.663 1.357 2.395 1.268 3.954-.263 1.123-1.103 2.054-2.399 3.1-3.583.844-.955 1.654-1.963 2.621-2.779.973-.82 2.251-.612 3.338.304 1.076.906 1.282 1.797.638 3.064a8.566 8.566 0 01-.99 1.527 1255.968 1255.968 0 01-7.447 9.004c-.426.511-.915.981-1.425 1.41-1.316 1.102-2.047 1.162-3.44.223-.703-.474-1.356-1.034-1.976-1.615-3.376-3.16-6.718-6.359-10.106-9.509-2.619-2.435-3.424-2.378-6.172 0-4.37 3.783-8.785 7.514-13.173 11.278a18.66 18.66 0 00-1.71 1.64c-.813.9-.986 1.947-.423 3.04.416.81.87 1.607 1.376 2.361a388.246 388.246 0 004.147 6.011 21.83 21.83 0 001.572 2.012c1.113 1.242 1.906 1.396 3.367.562.893-.51 1.695-1.179 2.541-1.77.947-.662 1.851-1.399 2.856-1.954 1.447-.799 2.75-.343 3.531 1.093.777 1.423.6 2.672-.934 3.842-2.9 2.212-5.907 4.287-8.894 6.38-.43.302-.996.447-1.52.57-.969.225-1.742.007-2.328-.932-1.447-2.322-2.979-4.592-4.469-6.889-1.656-2.55-3.255-5.14-4.966-7.654-1.35-1.983-2.7-2.207-4.85-1.12-4.777 2.412-9.573 4.786-14.357 7.183-.542.271-1.114.524-1.573.905-.95.79-1.534 1.836-1.084 3.067 1.372 3.766 2.738 7.54 4.292 11.232.713 1.694 1.812 2.043 3.613 1.53 1.103-.315 2.122-.92 3.221-1.26 1.145-.355 2.33-.647 3.517-.78 1.108-.124 1.818.607 2.187 1.598.37.994.261 1.974-.618 2.648-.812.623-1.683 1.217-2.614 1.63a222.584 222.584 0 01-8.41 3.531c-3.047 1.204-3.91.765-5.044-2.363-.145-.4-.277-.805-.412-1.208-1.239-3.69-2.465-7.384-3.723-11.067a44.959 44.959 0 00-1.262-3.225c-.53-1.236-1.425-1.942-2.852-1.774-1.265.15-2.555.172-3.792.443-4.213.924-8.403 1.95-12.61 2.897-1.42.32-2.87.506-4.3.788-.89.177-1.78.383-2.65.642-.838.25-1.237.824-1.315 1.748-.153 1.82-.286 3.601.005 5.444.397 2.517.545 5.077.71 7.624.08 1.235.79 1.815 1.836 1.867 1.501.074 3.017-.033 4.521-.137 1.63-.113 3.255-.435 4.882-.436 1.45 0 2.462 1.115 2.67 2.538.192 1.33-.482 2.407-1.93 2.905-.683.235-1.416.34-2.135.443-3.067.44-6.136.87-9.209 1.273-1.204.158-2.419.312-3.63.33-2.294.03-2.938-.526-3.279-2.757-.146-.959-.15-1.939-.212-2.909-.264-4.186-.518-8.372-.793-12.557-.032-.48-.156-.96-.273-1.43-.536-2.166-1.466-2.995-3.637-3.168-5.943-.473-11.889-.923-17.833-1.386-1.455-.114-2.907-.259-4.362-.37-2.206-.172-3.119.472-3.68 2.601-.374 1.412-.824 2.813-1.05 4.25-.399 2.515-.735 5.047-.937 7.585-.133 1.674.04 1.812 1.693 2.276 1.107.31 2.27.418 3.39.693 1.827.45 3.691.823 5.443 1.486 1.888.713 2.036 2.791.474 4.066-.927.758-1.97.925-3.083.785-1.748-.22-3.497-.457-5.23-.772-2.449-.445-4.915-.845-7.314-1.487-3.38-.905-3.743-1.557-2.957-4.956.821-3.55 1.807-7.063 2.645-10.61.404-1.707.696-3.447.925-5.187.21-1.598-.659-2.655-2.039-3.329-.435-.213-.898-.374-1.355-.537-5.55-1.986-11.106-3.958-16.653-5.956-2.858-1.03-3.959-.692-5.335 1.983-1.5 2.92-2.884 5.901-4.313 8.86a6.732 6.732 0 00-.33.85c-.575 1.754-.323 2.592 1.217 3.563.818.516 1.721.901 2.598 1.32.878.417 1.771.804 2.66 1.2 1.593.712 2.002 2.404 1.254 4.031-.692 1.506-1.647 1.816-3.493 1.178-.172-.06-.35-.106-.516-.182-2.658-1.207-5.325-2.397-7.965-3.642-.82-.387-1.562-.938-2.353-1.39-1-.574-1.306-1.456-.96-2.482a24.066 24.066 0 011.41-3.345c2.097-4.052 4.271-8.064 6.363-12.118 1.474-2.852 1.293-3.45-1.323-5.208-4.647-3.12-9.296-6.237-13.949-9.347-2.289-1.53-2.964-1.44-4.81.597-.082.09-.16.183-.238.278-1.97 2.398-3.947 4.791-5.903 7.202-.38.47-.73.98-.996 1.521-.623 1.271-.549 2.504.523 3.51.84.79 1.78 1.471 2.648 2.231.821.72 1.693 1.405 2.387 2.236.781.936.66 2.41-.087 3.398-.679.9-1.67 1.158-2.955.688a5.597 5.597 0 01-1.428-.783 407.695 407.695 0 01-7.099-5.442c-.759-.599-1.444-1.307-2.09-2.03-.714-.8-.838-1.769-.343-2.72.39-.749.84-1.487 1.38-2.133 1.367-1.633 2.8-3.212 4.206-4.81 1.81-2.056 3.66-4.079 5.422-6.174 1.903-2.259 1.84-3.536-.159-5.732-.778-.855-1.632-1.64-2.403-2.5-3.774-4.218-7.516-8.464-11.303-12.669-1.854-2.059-3.28-2.262-5.586-.7-2.619 1.771-5.158 3.662-7.72 5.518a6.912 6.912 0 00-1.077.983c-1.114 1.235-1.265 2.248-.374 3.636.721 1.122 1.606 2.138 2.408 3.21.837 1.118 1.742 2.197 2.47 3.385.737 1.202.307 2.496-.963 3.488-1.18.921-2.2.99-3.244-.143-3.51-3.81-6.587-7.967-9.324-12.365-.776-1.246-.466-2.493.506-3.512.58-.609 1.27-1.138 1.977-1.6 3.516-2.293 7.061-4.545 10.583-6.83.713-.462 1.42-.954 2.05-1.52 1.513-1.36 1.733-2.367.977-4.226-.25-.618-.589-1.2-.88-1.802l-8.578-17.735c-.37-.766-.784-1.513-1.129-2.29-.38-.86-1.038-1.13-1.915-1.017-.482.062-.989.06-1.44.214-3.45 1.185-6.919 2.322-10.318 3.64-2.123.822-2.63 1.948-2.077 4.211.328 1.348.964 2.618 1.4 3.942.377 1.147.73 2.31.98 3.49.255 1.217-.458 2.124-1.3 2.85-1.138.981-2.4.768-3.244-.499a9.947 9.947 0 01-1.01-1.934c-1.499-3.919-2.966-7.85-4.434-11.779a5.45 5.45 0 01-.278-1.057c-.297-1.887.143-2.689 1.912-3.426.615-.256 1.258-.452 1.898-.644 4.486-1.34 8.986-2.636 13.458-4.019 2.65-.819 3.476-2.216 3.056-4.976-.257-1.68-.534-3.368-.943-5.017-.805-3.253-1.483-6.515-1.685-9.875a18.288 18.288 0 00-.686-3.945c-.573-1.989-1.523-2.707-3.593-2.676-3.406.05-6.81.223-10.214.354-.302.011-.604.078-.9.143-1.72.376-2.419 1.072-2.572 2.825-.105 1.207-.025 2.431-.027 3.648 0 1.034 0 2.068-.004 3.101-.006 1.076-.409 1.898-1.497 2.245-1.193.38-2.294.02-3.003-1.097-.417-.658-.799-1.396-.96-2.148-.772-3.59-.89-7.243-.744-10.898.055-1.355.62-1.975 1.962-2.275.941-.21 1.925-.289 2.892-.314 2.312-.06 4.627-.012 6.938-.087 2.248-.074 4.498-.202 6.74-.387 2.96-.244 3.907-1.306 4.004-4.288.09-2.795.18-5.59.305-8.384.041-.909.16-1.817.304-2.716.292-1.795.736-3.573.912-5.378.198-2.02-.22-2.57-2.098-3.313-3.917-1.55-8.07-1.736-12.195-1.943-1.932-.097-2.902.861-3.297 2.752-.197.945-.192 1.931-.305 2.895-.105.902-.113 1.847-.414 2.683-.226.627-.744 1.29-1.315 1.625-1.762 1.035-4.422-.056-4.24-2.458.343-4.493 1.28-8.893 2.244-13.277.348-1.579 1.498-1.988 3.134-1.552 1.113.296 2.212.652 3.337.893 3.21.69 6.424 1.348 9.644 1.987 1.131.225 2.275.442 3.422.521 2.331.161 3.524-.713 4.171-2.924.324-1.108.586-2.237.947-3.333a2030.392 2030.392 0 015.236-15.749c1.052-3.114.565-4.513-2.37-5.915-2.853-1.363-5.756-2.62-8.639-3.92-2.265-1.02-3.466-.604-4.689 1.83-.653 1.3-1.1 2.7-1.693 4.033-.418.941-.825 1.911-1.414 2.743-.804 1.137-2.479 1.393-3.805.75-1.199-.582-1.488-1.432-1.048-3.105.046-.176.107-.35.18-.517 1.77-4.136 3.46-8.309 5.344-12.393 1.194-2.59 2.59-2.945 5.196-1.72.275.13.54.282.81.421 4.06 2.081 8.12 4.163 12.182 6.238.487.25.99.473 1.496.676 1.41.564 2.664.271 3.635-.863.708-.827 1.295-1.76 1.91-2.664 3.423-5.029 6.835-10.064 10.257-15.092.411-.604.887-1.164 1.276-1.78.664-1.054.648-3.418-.12-4.105-2.9-2.598-5.806-5.196-8.803-7.682-1.367-1.133-2.987-.918-4.258.396-.969 1.003-1.805 2.135-2.705 3.205-.82.978-1.596 2.001-2.488 2.91-.95.97-1.8.995-2.954.291-1.776-1.085-2.093-2.813-.628-4.677 2.595-3.298 5.302-6.509 7.98-9.743.386-.465.847-.879 1.32-1.258 1.313-1.057 2.054-1.07 3.424-.03.628.477 1.206 1.025 1.781 1.568 3.098 2.922 6.178 5.865 9.29 8.775.751.702 1.566 1.35 2.41 1.94 1 .7 2.07.65 3.08-.014.505-.333.965-.738 1.427-1.13 4.217-3.589 8.431-7.182 12.643-10.776.556-.473 1.134-.925 1.653-1.436 1.742-1.713 1.93-2.603.614-4.642-1.846-2.86-3.828-5.635-5.762-8.44-.206-.299-.464-.565-.719-.825-1.37-1.402-2.192-1.549-3.86-.528-1.035.633-1.957 1.448-2.98 2.101-.814.518-1.662 1.04-2.569 1.333-1.213.395-2.49-.222-3.138-1.289-.6-.99-.508-1.927.46-2.986a14.506 14.506 0 012.173-1.939 237.725 237.725 0 016.574-4.613c2.676-1.808 3.593-1.656 5.374.984 1.497 2.218 2.861 4.526 4.31 6.777 1.545 2.405 3.06 4.835 4.704 7.17 1.331 1.893 1.79 1.945 3.798.95a4373.554 4373.554 0 0015.023-7.48c3.112-1.558 3.527-2.58 2.301-5.8a230.285 230.285 0 00-3.116-7.792c-.54-1.276-1.255-2.478-2.05-4.024m42.874 283.225c.268-1.006.685-1.919.73-2.85.175-3.645.315-7.296.305-10.944-.007-2.584-.825-3.345-3.377-3.56-1.09-.092-2.202.027-3.282-.118-1.19-.16-2.395-.408-3.524-.81-1.23-.44-1.704-1.477-1.596-2.779.094-1.132.697-1.842 2.051-2.238.58-.17 1.198-.33 1.79-.304 3.706.163 7.407.416 11.113.566 2.245.091 3.875 2.064 3.9 4.28.03 2.615.024 5.231.055 7.847.03 2.553.074 5.107.145 7.66.015.54.146 1.084.273 1.614.481 2.004.954 2.396 3.05 2.251 1.88-.13 3.748-.406 5.625-.592 3.691-.365 7.4-.597 11.072-1.097 4.09-.556 8.168-1.258 12.214-2.076 2.327-.47 2.88-1.56 2.376-3.856a508.301 508.301 0 00-1.835-7.997 13.645 13.645 0 00-.62-1.907c-.975-2.448-1.475-2.826-4.077-2.722-1.698.068-3.388.324-5.083.481-.544.051-1.092.08-1.638.074-1.045-.013-1.957-.318-2.284-1.435-.33-1.122-.2-2.194.732-3.01.406-.355.874-.679 1.37-.88a14.014 14.014 0 012.26-.694c3.025-.67 6.061-1.288 9.083-1.967 1.807-.405 2.441-.243 3.267 1.396.625 1.24 1.098 2.571 1.501 3.904 1.25 4.132 2.398 8.295 3.653 12.426 1.023 3.37 1.655 3.815 4.985 2.591 6.22-2.286 12.355-4.797 18.513-7.248 1.24-.493 2.471-1.048 3.62-1.722 1.936-1.135 2.371-2.435 1.338-4.454-1.718-3.356-3.539-6.66-5.403-9.937-.869-1.526-1.28-1.659-3-1.209-1.05.273-2.033.791-3.055 1.174-.85.318-1.692.714-2.574.871-1.52.272-2.69-.44-3.226-1.779-.48-1.2-.13-2.098 1.243-3.065a15.605 15.605 0 011.711-1.048 292.884 292.884 0 015.998-3.096c2.173-1.079 3.491-.766 4.793 1.278 1.502 2.36 2.874 4.8 4.315 7.198 1.473 2.451 3 4.87 4.423 7.348.744 1.295 1.81 1.54 3.088 1.19.69-.188 1.39-.49 1.97-.903 5.648-4.024 11.273-8.082 16.905-12.13.048-.037.095-.076.142-.114 3.14-2.546 3.262-3.709.661-6.727-1.748-2.029-3.522-4.036-5.29-6.046a21.96 21.96 0 00-1.13-1.194c-1.648-1.617-2.203-1.688-4.09-.402-.803.547-1.532 1.202-2.304 1.794-.772.592-1.522 1.222-2.342 1.74-1.525.958-2.209.886-3.224-.195-1.045-1.112-1.226-2.674-.376-3.836a8.985 8.985 0 011.374-1.458 785.79 785.79 0 016.535-5.562 9.51 9.51 0 011.031-.753c1.336-.854 2.04-.845 3.317.125.58.44 1.11.951 1.617 1.473 3.14 3.231 6.257 6.481 9.4 9.708.678.695 1.382 1.38 2.155 1.961 1.028.773 1.793.758 2.837-.005.585-.428 1.11-.95 1.606-1.482 6.06-6.515 11.681-13.395 16.905-20.594 2.6-3.584 1.734-4.038-1.074-5.904a539.548 539.548 0 00-7.195-4.675c-.56-.36-1.15-.684-1.76-.954-1.248-.553-2.413-.37-3.324.662-.843.955-1.59 1.994-2.382 2.995-.829 1.05-1.588 2.163-2.507 3.125-1.046 1.097-2.055 1.143-3.288.385-1.144-.702-1.61-1.822-1.218-3.139.153-.514.427-1.01.727-1.459 2.062-3.087 4.106-6.187 6.235-9.228 1.83-2.614 2.7-2.8 5.455-1.244 3.972 2.246 7.907 4.56 11.863 6.832.791.454 1.583.923 2.422 1.272 1.558.647 2.655.304 3.638-1.094.382-.544.69-1.146.987-1.744a229.593 229.593 0 0010.61-24.818c.082-.229.171-.456.24-.69.682-2.348.322-3.234-2.033-4.018-3.69-1.229-7.433-2.298-11.149-3.45-.936-.29-1.74-.04-2.289.685a12.243 12.243 0 00-1.45 2.503c-.483 1.113-.728 2.331-1.239 3.428a13.323 13.323 0 01-1.734 2.753c-.7.861-1.659.851-2.662.414-.994-.434-1.636-1.046-1.454-2.216.177-1.137.265-2.303.585-3.4.711-2.452 1.541-4.869 2.325-7.299.093-.29.192-.578.307-.859 1.136-2.799 2.295-3.522 5.22-2.863 4.208.95 8.38 2.06 12.57 3.093 1.058.261 2.116.59 3.193.703 1.775.186 2.33-.138 2.881-1.808.57-1.728 1.077-3.496 1.386-5.285a449.456 449.456 0 002.097-13.516c.271-1.924.35-3.877.456-5.82.033-.597-.11-1.208-.214-1.805-.205-1.176-.95-1.869-2.11-1.923-3.89-.183-7.78-.366-11.673-.41-1.77-.02-2.965 1.006-3.375 2.777-.19.826-.248 1.682-.414 2.515-.213 1.068-.357 2.171-.742 3.18-.512 1.34-1.657 1.732-2.979 1.147-1.119-.497-1.863-1.352-2.119-2.574-.06-.296-.115-.612-.079-.907.385-3.132.707-6.276 1.222-9.387.265-1.599 1.072-2.166 2.872-2.248 2.796-.127 5.597-.137 8.396-.17 2.556-.03 5.114.01 7.668-.047 3.033-.067 3.612-.677 3.623-3.696.023-5.793-.389-11.543-1.557-17.233-.34-1.662-.376-3.384-.617-5.07-.342-2.382-1.262-3.152-3.687-3.039a21.701 21.701 0 00-3.434.443 221.535 221.535 0 00-7.288 1.68c-1.919.473-2.532 1.271-2.469 3.245.033 1.091.258 2.174.312 3.266.057 1.146.143 2.316-.02 3.442-.202 1.402-.918 2.013-2.12 2.13-1.257.121-2.313-.286-2.922-1.433-.309-.579-.506-1.242-.628-1.89a404.459 404.459 0 01-1.637-9.15c-.528-3.217-.2-2.986 2.2-3.902 2.2-.84 4.555-1.282 6.85-1.869 2.942-.754 5.893-1.473 8.84-2.217a8.47 8.47 0 001.208-.409c2.164-.92 2.537-1.493 1.87-3.779a122.262 122.262 0 00-2.878-8.652 725.458 725.458 0 00-6.29-16.147c-.469-1.162-1.237-2.22-1.974-3.25-.533-.746-1.359-1.03-2.277-.724-.918.304-1.859.58-2.72 1.007-2.125 1.054-4.212 2.186-6.31 3.29-3.695 1.943-4.217 3.588-2.374 7.372.691 1.42 1.443 2.822 1.98 4.3.767 2.114-.922 4.097-3.153 3.743-.532-.085-1.122-.489-1.463-.92-.597-.757-1.074-1.624-1.509-2.492a430.345 430.345 0 01-4.096-8.356c-1.588-3.342-1.2-4.546 1.993-6.4 3.788-2.203 7.593-4.372 11.37-6.592.885-.52 1.758-1.11 2.501-1.813 1.141-1.08 1.216-1.84.541-3.26a11.875 11.875 0 00-.822-1.42c-4.756-7.228-9.862-14.194-15.472-20.785-.63-.74-1.286-1.47-2.015-2.11-1.198-1.055-1.934-1.079-3.295-.247-.36.222-.725.461-1.03.752-2.549 2.441-5.124 4.856-7.61 7.361-1.46 1.473-1.467 2.701-.18 4.371.777 1.011 1.675 1.93 2.487 2.915.656.798 1.325 1.595 1.883 2.461.767 1.193.634 2.223-.268 3.144-1.019 1.041-2.342 1.297-3.47.56a9.61 9.61 0 01-1.798-1.535 453.168 453.168 0 01-6.637-7.29c-1.799-2.027-1.863-3.236-.018-5.25 2.96-3.23 6.05-6.34 9.07-9.516.962-1.013 1.944-2.02 2.783-3.134.947-1.258.888-1.703-.107-2.902-.503-.606-1.048-1.2-1.663-1.686-5.685-4.482-11.388-8.94-17.087-13.404-.096-.075-.202-.137-.302-.206-2.909-1.995-4.238-1.824-6.179 1.086a146.157 146.157 0 00-5.08 8.23c-1.263 2.19-1.008 3.108.973 4.656.765.6 1.632 1.075 2.372 1.701.64.543 1.266 1.156 1.721 1.853.708 1.084.512 2.222-.36 3.175-.827.903-1.759 1.113-2.972.592a12.335 12.335 0 01-1.932-1.022c-1.977-1.312-3.957-2.623-5.878-4.015-2.036-1.476-2.296-2.447-1.082-4.653 2.26-4.104 4.633-8.144 6.938-12.223.537-.95 1.08-1.914 1.46-2.93.518-1.38.266-2.135-.894-3.038a9.47 9.47 0 00-1.868-1.129c-6.3-2.889-12.58-5.828-18.934-8.6-3.657-1.595-4.593-1.098-5.96 2.662-.977 2.686-1.858 5.406-2.778 8.112a6.563 6.563 0 00-.249.876c-.447 2.306-.049 3.224 2.065 4.26 1.472.72 3.045 1.23 4.528 1.93 1.411.664 1.931 1.863 1.592 3.304-.423 1.793-1.634 2.648-3.37 2.056-3.624-1.236-7.19-2.636-10.784-3.96-1.226-.452-1.727-1.346-1.458-2.578.48-2.193.984-4.385 1.59-6.547.935-3.336 1.967-6.646 2.953-9.968.785-2.647.148-3.868-2.458-4.729-.173-.056-.343-.132-.52-.165-4.597-.862-9.193-1.724-13.792-2.574-2.45-.452-4.897-.938-7.36-1.3-1.804-.266-3.63-.386-5.45-.512a8.008 8.008 0 00-1.995.141c-1.704.32-2.354.926-2.47 2.658-.177 2.67-.209 5.35-.278 8.026a59.025 59.025 0 00.02 3.286c.044 1.513.795 2.567 2.254 2.96 1.225.328 2.494.5 3.746.721 1.493.264 3.026.381 4.474.795 1.53.437 1.962 1.825 1.144 3.193-.836 1.4-2.016 2.264-3.74 2.1-.787-.077-1.59-.122-2.347-.327-2.139-.579-4.312-.7-6.51-.709-1.03-.005-2.06-.146-3.089-.25-1.295-.129-2.157-.869-2.502-2.08-.262-.923-.44-1.902-.45-2.858-.048-4.322-.018-8.644-.025-12.966 0-.608.014-1.225-.083-1.82-.26-1.61-1.127-2.437-2.75-2.707-.36-.06-.725-.13-1.088-.13-5.9.015-11.79.013-17.613 1.283-2.664.58-5.428.69-8.118 1.17-1.356.24-2.708.704-3.958 1.29-1.499.7-1.656 1.153-1.29 2.768.7 3.083 1.43 6.16 2.21 9.222.237.936.675 1.82 1.032 2.725.46 1.16 1.307 1.733 2.56 1.563a72.683 72.683 0 003.586-.599c1.193-.22 2.37-.572 3.572-.695 1.657-.168 2.506.552 2.833 2.167.306 1.513-.386 3.106-1.726 3.415-3.967.92-7.948 1.79-11.952 2.527-1.792.33-2.7-.304-3.492-1.953a16.877 16.877 0 01-.986-2.546c-1.004-3.444-1.933-6.91-2.957-10.346-.433-1.45-.949-2.89-1.584-4.264-.652-1.41-1.436-1.712-2.976-1.4-.594.118-1.188.28-1.75.502-6.164 2.438-12.333 4.865-18.472 7.365-1.4.57-2.674 1.44-4.035 2.115-.994.494-1.223 1.292-1.029 2.27.117.591.257 1.207.536 1.731 1.628 3.062 3.256 6.125 4.975 9.136 1.117 1.957 2.561 2.38 4.713 1.508 1.295-.525 2.542-1.169 3.828-1.718 1.062-.453 2.022-.225 2.85.577 1.255 1.217 1.284 2.794.036 4.018a5.12 5.12 0 01-1.17.862c-2.204 1.166-4.392 2.37-6.646 3.433-2.644 1.247-3.984.848-5.496-1.665-2.163-3.598-4.215-7.262-6.332-10.887-.674-1.155-1.324-2.338-2.129-3.399-1.106-1.459-2.017-1.619-3.63-.77-.86.45-1.686.98-2.474 1.548-5.33 3.842-10.684 7.653-15.954 11.578-3.034 2.26-3.123 3.601-.708 6.441 1.735 2.04 3.53 4.03 5.307 6.032.322.364.672.707 1.033 1.031 1.802 1.618 2.91 1.69 4.855.281.886-.642 1.72-1.357 2.61-1.997.588-.425 1.197-.85 1.856-1.143 1.346-.597 2.315-.364 3.11.628.891 1.113.947 2.373.05 3.515a13.47 13.47 0 01-1.777 1.83c-1.93 1.674-3.892 3.315-5.85 4.956-.373.312-.792.567-1.186.853-1.149.835-2.293.724-3.365-.102a19.33 19.33 0 01-2.027-1.832c-3.007-3.103-5.982-6.238-8.996-9.336a16.364 16.364 0 00-2.2-1.907c-1.02-.73-1.83-.683-2.842.082-.53.401-1.017.872-1.476 1.357-6.16 6.51-11.794 13.46-17.022 20.73-1.872 2.603-2.397 3.234 1.054 5.728 2.511 1.817 5.163 3.446 7.801 5.078 2.426 1.5 3.555 1.292 5.352-.88.774-.937 1.42-1.977 2.165-2.939.67-.863 1.334-1.746 2.11-2.509.967-.95 1.912-1.002 2.984-.356 1.035.624 1.681 1.848 1.386 2.936a7.506 7.506 0 01-.967 2.148 362.527 362.527 0 01-5.54 8.15c-2.482 3.537-3.633 3.371-6.78 1.53-3.938-2.306-7.9-4.57-11.868-6.825-3.3-1.877-4.52-1.56-6.185 1.841-3.958 8.091-7.62 16.315-10.583 24.83-1.059 3.041-.496 4.216 2.56 5.23 2.595.86 5.228 1.613 7.85 2.394a10.19 10.19 0 001.607.334c2.51.327 3.56-.304 4.512-2.655.798-1.968 1.587-3.94 2.431-5.889.39-.898 1.03-1.477 2.145-1.268 1.09.203 2.005.658 2.361 1.747a4.66 4.66 0 01.181 1.968c-.11.898-.369 1.785-.635 2.655-.693 2.267-1.39 4.534-2.157 6.776a18.29 18.29 0 01-1.327 2.983c-.587 1.052-1.549 1.513-2.779 1.267-.655-.13-1.313-.25-1.96-.409-4.309-1.063-8.612-2.146-12.922-3.198a14.708 14.708 0 00-2.34-.374c-1.757-.139-2.409.293-3.049 1.936-1.047 2.69-1.428 5.525-1.815 8.36-.567 4.155-1.192 8.303-1.723 12.464-.185 1.442-.242 2.911-.222 4.367.025 1.86 1.14 3.138 3.014 3.253 3.702.23 7.413.358 11.122.416 1.721.027 2.916-1.083 3.292-2.848.202-.948.244-1.93.35-2.898.064-.604.05-1.224.176-1.814.408-1.923 1.27-2.504 3.27-2.28 1.665.185 2.597 1.177 2.443 2.997a156.617 156.617 0 01-1.08 9.24c-.214 1.47-1.115 2.172-2.686 2.231-2.493.094-4.99.1-7.484.11-2.8.013-5.6-.02-8.4-.01-.668.001-1.343.043-2 .154-1.146.193-1.846.895-2.006 2.058a13.148 13.148 0 00-.145 2c.076 5.05.126 10.092 1.221 15.071.442 2.008.496 4.101.737 6.155.085.723.134 1.461.316 2.162.497 1.904 1.772 2.686 3.698 2.298 3.038-.612 6.078-1.215 9.1-1.897.935-.21 1.855-.59 2.71-1.03 1.131-.585 1.664-1.559 1.447-2.877-.159-.958-.284-1.922-.433-2.882-.122-.78-.332-1.556-.37-2.34-.09-1.766.77-2.795 2.442-3.05 1.596-.245 2.886.565 3.322 2.143.177.642.238 1.315.361 1.973.346 1.848.703 3.694 1.041 5.544.197 1.073.412 2.146.534 3.228.164 1.46-.59 2.454-1.842 3.061-.65.314-1.365.52-2.07.693-4.189 1.034-8.386 2.03-12.573 3.071-.942.234-1.874.54-2.77.91-1.86.761-2.285 1.478-1.71 3.387 1.122 3.725 2.246 7.457 3.592 11.104 1.747 4.734 3.695 9.393 5.596 14.068.387.952.89 1.871 1.444 2.738.89 1.388 1.703 1.633 3.262 1.115a7.006 7.006 0 001.001-.44 1886.05 1886.05 0 008.57-4.487c.428-.226.858-.476 1.223-.789.943-.809 1.485-1.808 1.027-3.07-.559-1.539-1.235-3.036-1.776-4.58-.398-1.135-.817-2.3-.945-3.482-.144-1.343.542-2.28 1.53-2.63 1.276-.454 2.266-.132 3.171 1.068.33.435.651.89.89 1.377 1.604 3.278 3.233 6.545 4.755 9.861.963 2.1.52 3.558-1.35 4.93-.832.61-1.737 1.121-2.63 1.641-3.418 1.99-6.878 3.91-10.258 5.962-3.565 2.165-3.805 2.858-1.438 6.486 4.793 7.347 10.072 14.345 15.706 21.068 2.496 2.98 3.731 3.026 6.582.336a664.683 664.683 0 006.076-5.799 9.956 9.956 0 001.3-1.52c.676-.989.784-2.066.08-3.078-.727-1.046-1.545-2.03-2.325-3.038-.817-1.057-1.71-2.065-2.436-3.18-.703-1.082-.512-2.069.351-2.967.886-.924 2.116-1.25 3.141-.69a7.412 7.412 0 011.87 1.431c2.311 2.505 4.57 5.057 6.844 7.595.122.135.227.286.335.433 1.274 1.738 1.28 2.973-.194 4.564-2.647 2.857-5.367 5.646-8.05 8.47-1.174 1.235-2.358 2.462-3.49 3.735-1.302 1.465-1.277 2.587.076 3.974.765.783 1.556 1.552 2.415 2.227 5.258 4.141 10.538 8.255 15.815 12.37.431.337.89.642 1.356.928 1.938 1.187 3.131 1.085 4.386-.742 2.1-3.058 4.097-6.19 6.016-9.364 1.078-1.784.854-2.795-.706-4.185-.995-.887-2.168-1.573-3.177-2.447-.626-.543-1.292-1.19-1.585-1.93-.434-1.098.007-2.156.871-2.974.795-.753 1.714-.852 2.706-.437.28.117.574.217.824.383 2.484 1.65 4.973 3.29 7.431 4.976 1.062.73 1.442 1.838 1.13 3.053a11.088 11.088 0 01-1.103 2.678c-2.189 3.865-4.442 7.694-6.65 11.548-2.01 3.506-1.809 4.788 1.784 6.513 6.355 3.053 12.824 5.874 19.297 8.675.998.432 2.268.311 3.41.294.357-.005.862-.437 1.032-.799a47.988 47.988 0 001.673-4.042c.708-1.942 1.348-3.909 2.015-5.867 1.148-3.37.528-4.705-2.79-6.133-1.283-.552-2.597-1.074-3.77-1.81-.599-.376-1.126-1.137-1.319-1.827-.362-1.292.603-3.282 2.664-3.04.9.105 1.814.254 2.666.544 2.245.764 4.46 1.613 6.685 2.436.455.17.91.35 1.346.561 2.821 1.365 2.97 1.681 2.092 4.723-1.383 4.791-2.786 9.576-4.18 14.363-.069.233-.152.462-.216.697-.665 2.472-.353 3.111 2.032 4.004.91.34 1.832.688 2.78.88 4.705.952 9.4 2 14.14 2.728 4.023.62 8.105.858 12.162 1.246.6.057 1.208.008 2.162.008M647.998 174.18c2.751-.638 8.128-.61 10.316.014 3.078.877 4.684 3.107 4.722 6.553.037 3.462-1.468 5.807-4.526 6.687-3.427.987-6.914.693-10.512.422zm18.3-47.976l-13.25 27.75h-5.196v-27.84h-26.306c-.58 2.2-.774 76.704-.194 81.21.822.064 1.696.19 2.57.191 10.528.014 21.058.04 31.588-.005 6.114-.026 12.113-.895 17.848-3.099 14.536-5.585 20.651-21.635 13.592-35.578-1.827-3.609-4.499-6.458-7.87-8.667-.84-.55-1.699-1.078-2.877-1.823l18.241-31.786c-2.239-.77-23.107-1.014-28.147-.353m-92.07 32.768l-5.99 23.196-.622-.033-5.937-23.163zm-17.92-20.73l-3.142-12.164h-28.217l25.365 81.247h35.247l25.23-80.79c-2.288-.744-24.208-.928-28.12-.265l-3.22 11.971zm260.22 20.744c-.399 4.53-5.014 21.36-6.358 22.918-1.837-7.693-4.113-15.139-5.719-22.918zm37.035-32.9h-28.197c-1.085 4.006-2.16 7.98-3.286 12.134h-23.073c-1.04-3.896-2.124-7.942-3.242-12.125h-27.61c.012 2.23 23.207 77.325 25.114 81.33h34.896l25.398-81.34m-355.167 50.989c-.36-2.9-2.08-4.9-4.94-5.41-2.63-.48-5.34-.48-8.34-.72v16.12c3.05.59 5.92.39 8.77-.31.67-.16 1.34-.5 1.89-.91 3.08-2.25 3.03-5.5 2.62-8.77m27.23 4.1c-.47 11.37-6 19.24-16.65 23.4-5.24 2.05-10.72 2.91-16.33 2.94-10.62.04-21.24.01-31.87 0-.77 0-1.55-.13-2.39-.21v-81.02c3.76-.66 24.19-.5 26.56.24v24.5c3.43 0 6.45-.08 9.46.01 5.6.18 11.05 1.22 16.19 3.53 8.05 3.62 13.11 9.67 14.54 18.46.44 2.67.61 5.44.49 8.15m-147.659-41.498l17.576 12.099c.955-.828 1.769-1.56 2.61-2.258 4.198-3.488 8.922-5.562 14.487-5.155 1.29.095 2.636.362 3.814.875 3.155 1.37 3.617 4.98.907 7.073-1.103.852-2.406 1.522-3.715 2.014-3.313 1.243-6.665 2.382-10.03 3.48-4.44 1.453-8.67 3.284-12.636 5.817-14.08 8.995-14.404 33.769 3.3 41.882 5.357 2.455 10.986 3.418 16.815 3.443 7.176.03 14.1-1.17 20.586-4.397 4.394-2.187 8.192-5.104 11.492-9.227l-16.564-11.542c-2.818 2.699-5.795 4.83-9.577 5.17-1.975.177-4.028-.028-5.992-.37-1.553-.27-2.748-1.34-3.101-2.996-.375-1.758.257-3.27 1.68-4.266 1.313-.92 2.744-1.75 4.237-2.32 3.495-1.33 7.105-2.36 10.582-3.736 3.564-1.41 7.133-2.88 10.509-4.681 15.214-8.117 14.403-30.443 1.867-39.231-4.578-3.21-9.612-5.134-15.07-6.06-8.944-1.52-17.751-1.025-26.337 2.038-6.814 2.43-12.537 6.443-17.44 12.348m369.506-13.572H720.78v60.047c-3.77.027-7.268.063-10.767.075-3.54.013-7.078.003-10.563.003-.68 2.276-.826 17.248-.221 21.097h69.86V186.4c-3.44-.374-6.951-.114-10.444-.16-3.537-.046-7.075-.01-11.021-.01-.316-4.052-.105-7.962-.143-11.858-.04-4.05-.01-8.1-.01-12.15v-24z"/><path d="M158.422 49.75c3.723.097 7.616.188 11.507.305.727.02 1.46.096 2.173.239 3.872.774 7.759 1.488 11.602 2.388a109.454 109.454 0 0130.557 12.196c9.289 5.442 17.662 12.035 25.01 19.936 4.782 5.14 9.109 10.619 12.859 16.548 5.788 9.15 10.255 18.898 13.14 29.35.194.702.4 1.399.578 2.105.65 2.585 1.325 5.166 1.919 7.764.229 1.002.203 2.06.406 3.07a78.8 78.8 0 011.49 13.014c.18 5.6.05 11.188-.616 16.75-.332 2.772-.752 5.547-1.356 8.27a152.144 152.144 0 01-2.691 10.38c-7.956 26.769-23.81 47.644-47.172 62.835-9.863 6.413-20.6 10.9-31.975 13.872-.936.245-1.868.514-2.812.72-1.955.426-3.902.936-5.88 1.198-3.976.528-7.974.894-11.958 1.364-3.695.435-7.381.707-11.1.24-4.524-.566-9.068-.97-13.584-1.587a81.453 81.453 0 01-8.398-1.6c-2.463-.603-4.838-1.553-7.281-2.252-8.247-2.358-15.93-5.991-23.261-10.376-9.728-5.82-18.381-12.95-25.924-21.441-13.573-15.283-22.205-33.002-26.313-52.97-.354-1.72-.303-3.525-.7-5.232-1.921-8.286-1.773-16.652-1.142-25.046.3-4.002 1.774-7.837 1.682-11.894-.005-.237.08-.48.146-.714 1.15-4.153 2.137-8.362 3.489-12.45 6.237-18.863 16.569-35.083 31.415-48.388 8.868-7.948 18.685-14.388 29.579-19.19 7.993-3.523 16.3-6.025 24.875-7.653 2.686-.51 5.364-1.177 8.077-1.393 3.815-.302 7.659-.252 11.659-.357m-.234-6.31c-4.593.26-9.496.203-14.298.866-25.927 3.584-48.51 14.226-67.325 32.55-14.978 14.59-25.258 32.012-31.045 52.086-1.551 5.379-2.436 10.895-3.35 16.419-1.422 8.604-1.527 17.224-.671 25.832 2.818 28.326 13.987 52.823 34.187 73.016 16.078 16.073 35.31 26.462 57.456 31.563 4.533 1.045 9.09 1.612 13.714 1.874 2.853.162 5.694.517 8.546.708 4.329.289 8.633-.113 12.936-.543 3.086-.308 6.206-.381 9.264-.857 6.804-1.06 13.426-2.903 19.919-5.183 35.765-12.555 63.64-42.361 73.855-78.86a127.598 127.598 0 003.93-20.206c.565-5.06.6-10.217.426-15.315-.842-24.402-8.404-46.563-22.948-66.19-15.654-21.125-36.165-35.455-61.392-43-6.311-1.888-12.764-3.124-19.263-3.99-4.506-.6-9.103-.527-13.941-.77"/><path d="M188.03 227.891c.225-.618.371-1.28.691-1.845.903-1.588 2.237-2.67 4-3.24 2.641-.858 5.49-.99 7.997-2.369.416-.229 1.386.04 1.786.413.535.502.908 1.277.443 2.15-.334.627-.583 1.308-.808 1.986-.56 1.698-1.585 2.986-3.218 3.755-.712.335-1.412.718-2.155.964-2.502.827-5 .725-7.48-.145-.783-.274-1.224-.76-1.256-1.669m-38.464 2.676c3.161-.126 6.323-.239 9.484-.39.535-.026 1.062-.222 1.594-.33 1.215-.246 1.918.173 2.187 1.296.244 1.023-.259 2.022-1.28 2.297-.818.22-1.674.323-2.52.402-12.184 1.15-24.299.566-36.376-1.345-9.196-1.454-18.303-3.335-27.372-5.419a13.034 13.034 0 00-1.616-.27c-1.185-.12-2.57 1.458-1.659 2.828.402.605.855 1.18 1.325 1.735 3.345 3.943 6.65 7.922 10.073 11.796 1.725 1.952 3.848 3.276 6.614 3.4 3.982.176 7.97.385 11.934.775 8.57.842 17.153.602 25.717.217 6.311-.283 12.63-.903 18.882-1.797 3.64-.52 7.186-1.788 10.714-2.906 1.17-.37 2.242-1.22 3.2-2.039 1.921-1.64 4.023-2.615 6.59-2.745 2.181-.11 4.351-.485 6.52-.78 4.635-.632 8.382-3.066 11.893-5.944.745-.61 1.42-1.305 2.105-1.982 2.802-2.77 6.2-4.41 9.956-5.48 2.97-.847 5.925-1.78 8.8-2.9 3.222-1.257 6.345-2.772 9.516-4.164 1.114-.489 2.258-.91 3.356-1.432 3.173-1.507 4.05-6 1.412-8.254-1.678-1.434-2.148-3.117-2.305-5.092-.067-.848-.11-1.705-.275-2.536-.282-1.418-.843-1.944-2.253-1.79-1.803.196-3.617.487-5.36.975-4.217 1.177-8.408 2.416-12.752 3.082-8.552 1.311-16.992.69-25.347-1.36-6.836-1.678-13.399-4.079-19.223-8.129-9.239-6.427-15.99-14.839-20.07-25.38-1.34-3.459-2.875-6.84-3.673-10.487-2.524-11.53-2.16-22.967 2.418-33.875 5.684-13.54 15.563-22.743 29.995-26.603 1.575-.422 3.192-.688 4.79-1.027 1.51-.32 3.3-2.469 3.581-4.25a31.244 31.244 0 012.693-8.623c.484-1.01 1.416-1.797 2.083-2.73.663-.927 1.39-1.848 1.834-2.88.485-1.127.107-1.939-1.045-2.303-1.073-.339-2.276-.648-3.36-.507-5.488.713-10.958 1.563-16.427 2.406-.83.13-1.634.454-2.439.722-2.063.687-2.932 2.225-3.036 4.305-.106 2.113-.192 4.23-.354 6.34a9.212 9.212 0 01-.492 2.3c-.28.803-.917 1.292-1.816 1.262-.97-.032-1.91-.803-2.122-1.714-.068-.293-.119-.61-.08-.905.284-2.22.51-4.455.925-6.652.282-1.493-.147-2.717-1.493-3.02-3.035-.687-5.783-.054-8.096 2.075-1.162 1.07-1.789 2.416-1.79 4.048-.006 4.472.606 8.844 2.018 13.094.454 1.364-.17 2.767-1.51 3.177-.299.091-.778.044-.998-.145-.54-.463-1.077-.99-1.428-1.599a5.575 5.575 0 01-.7-2.06c-.418-3.43-1.403-6.795-1.187-10.307.051-.828-.139-1.7-.373-2.507-.494-1.7-1.788-2.445-3.5-2.045-1.124.263-2.219.641-3.332.953-1.566.438-2.518 1.66-3.492 2.814-.27.322-.368.924-.31 1.368.404 3.131.61 6.321 1.383 9.364.986 3.877 2.44 7.637 3.72 11.437.13.386.475.696.69 1.06.536.914.218 2.328-.645 2.935-.809.57-1.827.377-2.34-.507-.367-.629-.642-1.31-.943-1.976-2.653-5.85-4.74-11.853-5.104-18.348-.046-.82-.329-1.663-.656-2.428-.639-1.493-2.206-2.038-3.633-1.32-1.136.573-2.334 1.081-3.343 1.832-1.345 1.002-2.332 2.271-2.074 4.175 1.054 7.77 2.89 15.285 6.806 22.18 1.741 3.065 3.372 6.192 5.038 9.3.618 1.151.46 2.194-.377 2.781-.898.63-2.168.314-2.984-.852-2.555-3.652-4.639-7.565-6.417-11.65-2.32-5.328-3.702-10.933-4.95-16.577a4.647 4.647 0 01-.118-1.269c.104-1.666-.812-2.686-2.174-3.347-1.165-.566-2.267-.088-3.276.518-.938.563-1.776 1.32-2.756 1.782-2.068.977-2.732 3.742-2.24 5.481 2.07 7.325 4.351 14.564 8.175 21.218 2.732 4.754 5.49 9.473 9.397 13.413 1.15 1.16 2.101 2.525 3.081 3.842.997 1.338 1.03 2.236.233 2.904-.967.811-1.977.662-3.18-.519-4.465-4.376-8.128-9.37-11.277-14.75-3.833-6.547-6.602-13.545-8.755-20.803-.289-.975-.744-1.925-1.268-2.799-.67-1.118-1.869-1.54-2.998-.908-1.74.976-3.497 2.008-5 3.302-1.686 1.452-1.769 3.536-1.215 5.573a78.964 78.964 0 005.335 14.148c5.67 11.531 13.436 21.406 23.402 29.527 1.125.916 2.366 1.703 3.611 2.453.738.446 1.271.904 1.214 1.84-.059.948-.608 1.634-1.35 2.033-.372.198-1.143.092-1.492-.182-4.396-3.454-8.975-6.688-12.803-10.824-7.299-7.888-13.313-16.6-17.318-26.624-.855-2.138-1.67-4.292-2.523-6.43-.224-.563-.506-1.105-.788-1.643-1.106-2.102-3.726-2.306-5.062-.768-1.819 2.095-3.429 4.403-4.884 6.77-.817 1.328-.57 2.963.006 4.43.286.731.641 1.452 1.075 2.105 4.314 6.481 8.534 13.032 13.012 19.4 5.836 8.295 13.251 15.057 21.4 21.021 1.857 1.36 3.936 2.417 5.914 3.611 2.136 1.287 4.305 2.524 6.401 3.874 1.312.845 1.444 2.275.335 3.215-.342.29-1.06.466-1.454.31a57.96 57.96 0 01-4.939-2.257c-6.943-3.555-13.004-8.322-18.608-13.696-6.04-5.792-11.346-12.217-16.129-19.068-2.82-4.04-5.533-8.158-8.223-12.287-.814-1.25-1.892-1.837-3.298-1.957-.94-.08-1.59.266-2.006 1.204-.862 1.943-1.819 3.845-2.752 5.756-.865 1.77-.904 3.601.04 5.272 7.167 12.693 15.348 24.57 27.173 33.5 8.44 6.373 17.662 11.182 27.83 14.128 1.62.47 3.304.708 4.95 1.095.452.107.927.29 1.295.565 1.006.754 1.231 1.471.847 2.341-.383.87-1.123 1.255-2.268 1.087-.84-.124-1.67-.324-2.5-.515-16.672-3.837-30.866-11.91-42.4-24.628-4.875-5.377-9.466-10.958-13.502-16.993-.362-.54-.758-1.176-1.299-1.455-1.41-.728-2.844-.015-3.148 1.593-.439 2.326-.772 4.677-1.052 7.028-.202 1.69-.23 3.4-.36 5.097-.142 1.836.316 3.437 1.633 4.788 9.47 9.713 19.644 18.564 31.433 25.39a77.117 77.117 0 0014.618 6.542c5.625 1.848 11.407 2.89 17.19 3.946 2.13.39 4.36.241 6.543.323.363.013.728-.05 1.092-.07.922-.053 1.51.502 1.84 1.233.316.695.231 1.463-.426 1.992-.413.333-.866.676-1.359.841-5.884 1.961-10.959 5.234-15.305 9.606-1.312 1.32-2.278 2.985-3.397 4.497-.107.145-.185.315-.263.48-.87 1.841-.318 2.957 1.702 3.172 3.81.408 7.621.82 11.443 1.052 2.666.163 5.35.032 8.027.032v.092"/><path d="M225.59 155.719l.137.007c-.206 4.177-.412 8.353-.62 12.53a5.876 5.876 0 01-.053.545c-.187 1.313-.831 2.048-1.991 2.277-1.257.247-2.371-.174-2.942-1.3-1.11-2.191-2.63-4.178-2.518-6.905.074-1.833-1.59-2.868-3.425-2.601-1.382.2-2.296 1.009-2.992 2.159-.923 1.525-2.214 2.427-4 2.899-1.358.359-2.791.469-4.096 1.236-1.18.694-1.57 1.528-1.646 2.778-.08 1.27.425 2.168 1.529 2.639 1.947.829 3.884 1.815 5.929 2.254 2.84.609 5.772.817 8.673 1.114 1.65.169 3.244.48 4.73 1.212 1.29.634 1.96 1.798 2.17 3.137.209 1.326-.891 2.345-2.236 2.19-.958-.108-1.91-.304-2.851-.515-1.766-.396-3.504-.967-5.29-1.218-3.237-.455-6.492-.835-9.754-1.046-2.81-.183-4.581-1.675-5.913-3.953-5.08-8.683-11.625-15.862-20.8-20.38-4.993-2.457-5.804-10.098-2.381-13.121 1.226-1.083 2.395-2.28 3.362-3.593 1.503-2.04 2.574-4.161 1.299-6.89-1.296-2.774-.384-5.45 2.096-7.666.708-.633 1.438-.812 2.336-.692 2.59.348 3.937 2.05 4.595 4.36.574 2.019 1.526 3.788 2.72 5.505 3.372 4.845 7.856 8.087 13.52 9.656 2.944.815 5.905 1.083 9.01.58 2.732-.442 5.567-.412 8.35-.334 2.269.064 3.352 1.39 3.447 3.67.029.728.012 1.46-.022 2.189-.114 2.426-.247 4.85-.373 7.277m-20.2-36.545c-1.903 3.2-.617 6.079 2.968 6.673 1.545.257 3.125.368 4.693.425 1.426.052 2.694-.945 2.978-2.237.323-1.468-.03-2.504-1.361-3.23a10.55 10.55 0 01-2.326-1.742c-1.3-1.283-1.144-2.802.129-4.113 3.694-3.806 5.337-8.273 3.789-13.508-1.616-5.471-7.386-8.312-12.892-6.841-4.513 1.208-9.147 1.956-13.701 3.023-3.37.788-6.737 1.632-10.031 2.68-5.59 1.784-10.074 5.35-14.174 9.396-6.851 6.76-11.387 14.807-13.134 24.337-.154.837-.322 1.68-.364 2.526-.377 7.657-.985 15.356 1.763 22.749 2.256 6.07 5.317 11.76 9.057 17.035 1.46 2.06 3.379 3.833 5.246 5.567 8.567 7.96 18.746 12.729 30.158 14.98 1.668.329 3.37.48 5.043.79 2.026.376 3.566-.366 4.81-1.904.27-.331.517-.68.8-.996.885-.986 1.569-.953 2.345.11.215.294.36.639.59.92.997 1.227 2.098 1.51 3.529.937 1.369-.55 2.022-1.45 1.847-2.99-.218-1.92-.644-3.816-.917-5.732-.092-.641-.11-1.34.05-1.957.272-1.046 1.795-1.447 2.644-.61 1.292 1.275 2.528 2.634 3.592 4.1 1.03 1.42 1.797 3.032 2.715 4.538.377.619.843 1.182 1.277 1.766.906 1.222 2.14 1.235 3.438.879 1.176-.321 1.81-1.022 1.713-2.245-.111-1.378-.28-2.816-.788-4.083-1.016-2.541-1.294-5.043-1.128-7.807.616-10.261.969-20.538 1.374-30.81.129-3.282-.013-6.578.2-9.852.18-2.725-2.546-4.911-4.775-4.513-1.372.245-2.785.257-4.18.378-.972.085-1.794-.242-2.49-.905-.891-.848-.967-1.361-.42-2.73.467-1.161.154-2.67-.733-3.532-.943-.917-2.442-1.313-3.535-.698-2.424 1.36-5.027 1.299-7.62 1.025-3.528-.373-6.651-1.865-9.486-3.957-2.163-1.595-3.361-3.823-3.916-6.396-.704-3.27 1.373-5.31 4.064-6.186 2.744-.892 5.505.445 6.576 3.095.205.505.366 1.027.584 1.645M74.531 183c.53 3.727 1.013 7.46 1.607 11.177.27 1.682 1.172 2.965 2.71 3.896 10.074 6.096 20.56 11.265 31.75 15.046 5.387 1.82 10.862 3.1 16.428 4.099 2.255.405 4.2-.2 5.753-1.97.387-.44.904-.825 1.44-1.06.892-.392 1.47-.987 1.27-1.946-.199-.958-.639-1.834-1.783-2.085-2.017-.443-4.038-.883-6.034-1.41-8.237-2.18-15.92-5.627-23.122-10.166-8.509-5.363-16.55-11.357-24.163-17.93-.414-.357-.818-.728-1.244-1.071-.897-.721-1.82-1.175-2.999-.543-1.093.587-1.629 1.392-1.43 2.656.065.415.01.85.01 1.276l-.193.03m45.527 45.025c.425 0 .85.005 1.276-.001.938-.014 1.56-.43 2.002-1.3.405-.799.92-1.58 1.543-2.22.879-.904 1.406-1.864.965-3.103-.42-1.178-1.32-1.784-2.56-2.06-3.616-.8-7.258-1.53-10.81-2.567-7.722-2.255-15.047-5.54-22.265-9.059-1.742-.849-3.421-1.83-5.13-2.75-.212-.115-.422-.239-.64-.347-1.42-.696-2.508-.603-3.52.362-1.003.958-1.074 2.214-.603 3.353 1.184 2.861 2.477 5.68 3.824 8.468.46.952.643 2.04 1.613 2.793.832.645 1.618 1.23 2.65 1.481 7.374 1.804 14.73 3.684 22.123 5.407 3.128.728 6.33 1.133 9.5 1.686z"/></g></svg>